#!OML:ASF X:\für Bonn\!DataBase\2005_08_12_Daniel\c3d\Daniel.ASF
:FULLY-SPECIFIED
:DEGREES
78
root 1.90524 16.5895 2.95493 -186.478 -44.5302 179.747
lowerback 16.9036 -2.47021 4.51121
upperback 3.76846 -2.86937 -0.926837
thorax -5.68155 -1.61644 -2.90972
lowerneck -6.22526 2.83367 -0.973994
upperneck 3.30966 4.04745 -5.58159
head 2.2296 1.80084 -1.45973
rclavicle 7.44138e-014 5.96354e-016
rhumerus -56.5983 8.04944 -96.6962
rradius 81.3916
rwrist -3.40194
rhand -19.2091 24.118
rfingers 7.12502
rthumb 7.10332 -5.74283
lclavicle 7.44138e-014 5.96354e-016
lhumerus -60.7128 0.347218 97.4092
lradius 96.8955
lwrist 6.56674
lhand -9.82833 -10.3502
lfingers 7.12502
lthumb 16.149 18.9971
rfemur -11.6794 -2.55914 24.4329
rtibia 48.8532
rfoot -30.0407 1.34117
rtoes -2.41955
lfemur -10.4482 2.98383 -16.6442
ltibia 102.254
lfoot 2.28632 -5.08181
ltoes -7.60196
79
root 1.66421 16.5768 2.7108 -186.458 -44.7203 179.589
lowerback 17.1427 -2.23244 4.63695
upperback 3.78011 -2.53349 -1.03498
thorax -5.7778 -1.45778 -3.16479
lowerneck -6.32173 2.60466 -0.976458
upperneck 3.4734 3.7504 -5.45783
head 2.29033 1.65302 -1.43035
rclavicle 4.95968e-014 -4.12478e-015
rhumerus -55.5421 7.86531 -97.1829
rradius 82.3581
rwrist -2.63371
rhand -19.1959 23.8522
rfingers 7.12502
rthumb 7.11608 -6.00819
lclavicle 4.95968e-014 -4.12478e-015
lhumerus -61.5122 0.566359 97.2369
lradius 96.7635
lwrist 6.08904
lhand -9.71565 -9.94588
lfingers 7.12502
lthumb 16.2575 19.3925
rfemur -9.84729 -2.58969 24.2326
rtibia 48.3281
rfoot -30.8093 1.46796
rtoes -2.52252
lfemur -12.753 3.09062 -16.8439
ltibia 103.235
lfoot 1.80301 -5.29139
ltoes -9.09259
80
root 1.41177 16.593 2.4586 -186.354 -44.8738 179.372
lowerback 17.2195 -1.97699 4.71668
upperback 3.79308 -2.18889 -1.16142
thorax -5.78069 -1.29159 -3.42166
lowerneck -6.40142 2.38603 -1.02207
upperneck 3.68758 3.46936 -5.23837
head 2.36213 1.51554 -1.3623
rclavicle 5.09696e-014 -2.73329e-016
rhumerus -54.9069 7.76924 -97.7765
rradius 83.2165
rwrist -1.92244
rhand -19.4843 24.0475
rfingers 7.12502
rthumb 6.83763 -5.82206
lclavicle 5.09696e-014 -2.73329e-016
lhumerus -62.4196 0.697029 97.0872
lradius 97.0035
lwrist 5.81488
lhand -9.36178 -9.85411
lfingers 7.12502
lthumb 16.5982 19.4561
rfemur -7.82905 -2.6607 23.9714
rtibia 47.4709
rfoot -31.1972 1.49896
rtoes -3.109
lfemur -14.8929 3.15104 -17.2429
ltibia 103.7
lfoot 1.39881 -5.2772
ltoes -10.0135
81
root 1.15495 16.6376 2.20145 -186.094 -44.9797 179.121
lowerback 17.136 -1.70485 4.70213
upperback 3.78209 -1.8399 -1.261
thorax -5.71661 -1.11868 -3.60025
lowerneck -6.52299 2.18845 -1.1739
upperneck 3.92174 3.22216 -4.91752
head 2.44533 1.39593 -1.24151
rclavicle -2.75565e-014 -1.33683e-014
rhumerus -54.4789 7.86513 -98.4493
rradius 84.1046
rwrist -1.46831
rhand -19.9065 24.4799
rfingers 7.12502
rthumb 6.43006 -5.4025
lclavicle -2.75565e-014 -1.33683e-014
lhumerus -63.2217 0.782619 97.0238
lradius 97.5334
lwrist 5.78261
lhand -8.78087 -9.96194
lfingers 7.12502
lthumb 17.1574 19.3005
rfemur -5.76136 -2.57913 23.7211
rtibia 46.359
rfoot -31.2692 1.42289
rtoes -3.45973
lfemur -17.0102 3.19147 -17.77
ltibia 103.721
lfoot 1.05392 -5.12752
ltoes -10.331
82
root 0.899012 16.6983 1.94517 -185.67 -45.0636 178.827
lowerback 16.9321 -1.4193 4.6142
upperback 3.71682 -1.48396 -1.36069
thorax -5.64254 -0.93912 -3.7386
lowerneck -6.56709 1.98566 -1.45344
upperneck 4.09943 2.96694 -4.4654
head 2.49139 1.27764 -1.05722
rclavicle 2.25807e-015 6.24929e-015
rhumerus -54.0558 8.18896 -99.232
rradius 85.1696
rwrist -1.39804
rhand -20.3245 24.7712
rfingers 7.12502
rthumb 6.02656 -5.12305
lclavicle 2.25807e-015 6.24929e-015
lhumerus -64.0043 0.73801 96.9997
lradius 98.2498
lwrist 6.02363
lhand -8.09755 -10.2433
lfingers 7.12502
lthumb 17.815 18.9607
rfemur -3.77588 -2.33945 23.484
rtibia 45.0993
rfoot -31.1092 1.24483
rtoes -3.60907
lfemur -19.172 3.19957 -18.4391
ltibia 103.388
lfoot 0.719683 -4.85944
ltoes -10.4394
83
root 0.650164 16.7688 1.69903 -185.103 -45.1044 178.48
lowerback 16.6615 -1.12022 4.48605
upperback 3.61428 -1.11593 -1.47381
thorax -5.57014 -0.752092 -3.86907
lowerneck -6.57825 1.78239 -1.82985
upperneck 4.26943 2.71313 -3.94096
head 2.52847 1.16148 -0.833608
rclavicle 3.24609e-014 1.82261e-014
rhumerus -53.717 8.69843 -100.043
rradius 86.4463
rwrist -1.69421
rhand -20.6262 25.0906
rfingers 7.12502
rthumb 5.7353 -4.81178
lclavicle 3.24609e-014 1.82261e-014
lhumerus -64.6988 0.593247 97.011
lradius 99.014
lwrist 6.47606
lhand -7.29514 -10.636
lfingers 7.12502
lthumb 18.5869 18.496
rfemur -1.98439 -1.97771 23.2443
rtibia 43.7534
rfoot -30.6508 0.910229
rtoes -3.79658
lfemur -21.4395 3.12317 -19.2902
ltibia 102.768
lfoot 0.476384 -4.41077
ltoes -10.0792
84
root 0.406099 16.8501 1.45818 -184.484 -45.1256 178.133
lowerback 16.3945 -0.815163 4.35815
upperback 3.46916 -0.735878 -1.59307
thorax -5.54337 -0.559749 -4.00597
lowerneck -6.52424 1.57049 -2.339
upperneck 4.4457 2.44996 -3.30505
head 2.55525 1.04273 -0.552795
rclavicle 8.05373e-014 -5.67934e-015
rhumerus -53.4992 9.33601 -100.84
rradius 87.8508
rwrist -2.24938
rhand -20.7754 25.5127
rfingers 7.12502
rthumb 5.59124 -4.39358
lclavicle 8.05373e-014 -5.67934e-015
lhumerus -65.3573 0.273368 97.0504
lradius 99.8185
lwrist 7.19129
lhand -6.40224 -10.9136
lfingers 7.12502
lthumb 19.4456 18.134
rfemur -0.392372 -1.59341 23.0493
rtibia 42.38
rfoot -29.8501 0.338547
rtoes -4.28368
lfemur -23.7046 2.94628 -20.181
ltibia 101.843
lfoot 0.266701 -3.85197
ltoes -9.41697
85
root 0.155561 16.9463 1.2094 -183.816 -45.1023 177.765
lowerback 16.0469 -0.477469 4.14973
upperback 3.31602 -0.326007 -1.69301
thorax -5.47736 -0.349987 -4.0792
lowerneck -6.38662 1.35941 -2.86579
upperneck 4.56893 2.18262 -2.69243
head 2.55393 0.92197 -0.27783
rclavicle 2.00326e-014 1.55502e-014
rhumerus -53.3712 9.99308 -101.545
rradius 89.2704
rwrist -2.81477
rhand -20.7725 26.0751
rfingers 7.12502
rthumb 5.59397 -3.83106
lclavicle 2.00326e-014 1.55502e-014
lhumerus -66.0363 -0.266385 97.1851
lradius 100.682
lwrist 8.06273
lhand -5.64474 -10.9368
lfingers 7.12502
lthumb 20.1738 18.0357
rfemur 1.07405 -1.11374 22.8887
rtibia 40.977
rfoot -28.635 -0.447359
rtoes -5.01471
lfemur -25.7404 2.77045 -21.0373
ltibia 100.517
lfoot -0.0651559 -3.31747
ltoes -8.91079
86
root -0.0966526 17.0497 0.95844 -183.193 -45.0665 177.381
lowerback 15.7491 -0.137569 3.88196
upperback 3.15166 0.0798601 -1.78917
thorax -5.45137 -0.142621 -4.11046
lowerneck -6.10525 1.15173 -3.37599
upperneck 4.62836 1.90812 -2.09558
head 2.50996 0.799062 -0.0125235
rclavicle -4.69163e-015 -8.69683e-016
rhumerus -53.3634 10.6548 -102.203
rradius 90.6331
rwrist -3.3044
rhand -20.6054 26.6589
rfingers 7.12502
rthumb 5.75533 -3.24292
lclavicle -4.69163e-015 -8.69683e-016
lhumerus -66.6829 -0.908977 97.3722
lradius 101.471
lwrist 8.99394
lhand -4.94955 -10.6748
lfingers 7.12502
lthumb 20.8419 18.2258
rfemur 2.50895 -0.513899 22.7466
rtibia 39.5456
rfoot -26.9628 -1.27104
rtoes -5.85666
lfemur -27.4567 2.65067 -21.8442
ltibia 98.8186
lfoot -0.501277 -2.89051
ltoes -8.62135
87
root -0.35059 17.157 0.705112 -182.597 -45.0021 176.985
lowerback 15.4579 0.211995 3.55538
upperback 2.99467 0.488944 -1.88589
thorax -5.42266 0.066978 -4.10629
lowerneck -5.80829 0.949585 -3.7777
upperneck 4.7075 1.63401 -1.60177
head 2.47631 0.673245 0.201458
rclavicle -6.22056e-014 1.07841e-014
rhumerus -53.4342 11.3144 -102.818
rradius 91.9303
rwrist -3.52877
rhand -20.3327 27.1984
rfingers 7.12502
rthumb 6.01861 -2.69606
lclavicle -6.22056e-014 1.07841e-014
lhumerus -67.2854 -1.62603 97.5603
lradius 102.192
lwrist 9.92098
lhand -4.31979 -10.2028
lfingers 7.12502
lthumb 21.4468 18.6301
rfemur 3.91748 0.0828205 22.5808
rtibia 38.0746
rfoot -24.8152 -2.08405
rtoes -6.61424
lfemur -28.894 2.63982 -22.5835
ltibia 96.7731
lfoot -0.973193 -2.5936
ltoes -8.31371
88
root -0.607932 17.2743 0.448604 -182.044 -44.8887 176.572
lowerback 15.2223 0.560146 3.16331
upperback 2.84354 0.887466 -1.96938
thorax -5.42255 0.271266 -4.0468
lowerneck -5.51652 0.771769 -4.11463
upperneck 4.79497 1.38974 -1.20862
head 2.45057 0.558627 0.373918
rclavicle -1.61823e-015 1.77664e-014
rhumerus -53.5969 12.009 -103.409
rradius 93.1295
rwrist -3.51689
rhand -19.9293 27.5691
rfingers 7.12502
rthumb 6.40803 -2.31393
lclavicle -1.61823e-015 1.77664e-014
lhumerus -67.9388 -2.23115 97.77
lradius 102.791
lwrist 10.6405
lhand -3.8217 -9.76064
lfingers 7.12502
lthumb 21.9252 19.017
rfemur 5.32181 0.635234 22.349
rtibia 36.6045
rfoot -22.2672 -2.8164
rtoes -7.14575
lfemur -29.9298 2.60761 -23.3132
ltibia 94.2829
lfoot -1.42074 -2.3431
ltoes -7.87402
89
root -0.868785 17.4043 0.188592 -181.479 -44.7413 176.164
lowerback 14.9796 0.909853 2.75946
upperback 2.6798 1.287 -2.06323
thorax -5.43515 0.47607 -3.98989
lowerneck -5.27319 0.590497 -4.3523
upperneck 4.90676 1.13822 -0.888824
head 2.44518 0.43849 0.506722
rclavicle 5.56877e-014 -2.02015e-014
rhumerus -53.8425 12.6842 -104.005
rradius 94.2699
rwrist -3.2877
rhand -19.4835 27.7016
rfingers 7.12502
rthumb 6.83845 -2.16794
lclavicle 5.56877e-014 -2.02015e-014
lhumerus -68.6789 -2.73102 97.9539
lradius 103.244
lwrist 11.1961
lhand -3.36387 -9.52754
lfingers 7.12502
lthumb 22.3647 19.1979
rfemur 6.64348 1.21812 22.1075
rtibia 35.1867
rfoot -19.3957 -3.58648
rtoes -7.23294
lfemur -30.6437 2.50426 -24.0325
ltibia 91.3508
lfoot -1.76392 -2.08423
ltoes -7.42743
90
root -1.13157 17.5351 -0.0778055 -180.931 -44.612 175.777
lowerback 14.6872 1.22723 2.28789
upperback 2.53516 1.63522 -2.12498
thorax -5.41085 0.658133 -3.84658
lowerneck -5.1465 0.445348 -4.56882
upperneck 5.06559 0.942096 -0.629224
head 2.47795 0.342333 0.620288
rclavicle 5.14666e-014 1.94809e-014
rhumerus -54.1702 13.4086 -104.613
rradius 95.3238
rwrist -2.90988
rhand -18.9206 27.6811
rfingers 7.12502
rthumb 7.38179 -2.17011
lclavicle 5.14666e-014 1.94809e-014
lhumerus -69.434 -3.07067 98.1105
lradius 103.686
lwrist 11.617
lhand -2.97765 -9.4151
lfingers 7.12502
lthumb 22.7354 19.2654
rfemur 7.89973 1.79601 21.8918
rtibia 33.8833
rfoot -16.341 -4.44146
rtoes -6.92816
lfemur -31.0675 2.44843 -24.6513
ltibia 88.0616
lfoot -2.00852 -2.11694
ltoes -7.28215
